<!DOCTYPE svg PUBLIC "-//W3C//DTD SVG 1.1//EN" "http://www.w3.org/Graphics/SVG/1.1/DTD/svg11.dtd">
<!-- Uploaded to: SVG Repo, www.svgrepo.com, Transformed by: SVG Repo Mixer Tools -->
<svg width="800px" height="800px" viewBox="0 0 64 64" xmlns="http://www.w3.org/2000/svg" fill="#fff" stroke="#fff">
<g id="SVGRepo_bgCarrier" stroke-width="0"/>
<g id="SVGRepo_tracerCarrier" stroke-linecap="round" stroke-linejoin="round"/>
<g id="SVGRepo_iconCarrier">
<path d="m51.35 13.7c-7.35-6.06-15.98-8.48-23.75-7.44-16.31 2.19-23.31 16.19-22.44 24.25s2.25 11.69 10.84 20.63 22.88 7.94 30.44 3.62 11.25-10 12.19-19.56.09-15.44-7.28-21.5zm5.37 19.47a31 31 0 0 1 -3.43 12.47 21.23 21.23 0 0 1 -5.6 6.36 14 14 0 0 1 -2.56 1.5s-3.34-3.75-3.5-3.78-.69.25-.56.41 3.37 3.69 3.25 3.81a11.59 11.59 0 0 1 -1.72.47s-3-3.16-3.1-3.16-.62.19-.56.38 2.85 2.87 2.66 3-8.47 2-14.13.34-9.14-5-13.35-9.1-7.5-11.5-6.92-17.87 4.67-12.8 9.21-15.59a30.44 30.44 0 0 1 12.47-4.55c5.64-.93 12.69 1.25 17.66 4.4s7.93 7 9.18 10.41 1.41 5.88 1 10.5zm-22.72-16.43c.71.5 4.79 0 6.17-.75s1-2.62-.08-3.58-4.35-.23-5.17.08a5.37 5.37 0 0 0 -2.29 2.3c-.3.41.61 1.45 1.37 1.95zm3.63-3.83c1.34 0 2.08.38 2.16.83s-.5 1.13-1.33 1.42a8.21 8.21 0 0 1 -3.5.29 3 3 0 0 1 -.71-1 5.53 5.53 0 0 1 3.33-1.54zm.87 9.58c-1.25 1-2.12 2.46-1.66 3.46s1.45 1.25 3.25.71a5.84 5.84 0 0 0 3.08-2.54c.25-.42-.21-1-1-1.46s-.57-1.44-1-1.5c-.97-.16-1.47.38-2.72 1.33zm2.63 1.09c.66.41 1 .25.62.71a5.07 5.07 0 0 1 -2.46 1.41c-.66 0-1.2-.16-.87-.87s1.33-2.13 1.92-2.25c.3-.08.07.58.74 1zm1.16 12.54c-.2.5 1.09 1.5 1.8 1.67a8.35 8.35 0 0 1 1.54.45 6.75 6.75 0 0 0 2.5.46c.83 0 .41-.91.62-1.33s.67-.13 1.25-.17 1.92-2 1.92-2-.21-1-.38-1.66.3-2.3.13-2.92-.88-.5-1.88-.67-1.66-.83-2.33-.66-.54.95-1.08 1.41-1.73.05-2.25.34c-1 .54-.54 2.16-.34 2.91s-1.34 1.67-1.55 2.17zm3.34-1.67c0-.75-.21-1.87.08-2 .5-.21 1.33.5 1.83.13s.55-1.38 1.13-1.34 1.29 0 1.12.34-1 1-.66 1.75.83 1.62.62 1.91-1-.33-1.66.38-.55 1.33-1 1.29-2.7-.71-2.5-1 .95-.71.99-1.46zm.71 6.29c.41-.29 0-.66-.13-.79s-.92.54-1.79.5-.92-.5-1.46-.91a2.14 2.14 0 0 0 -2.12.29c-.09.12-.25 1.16.45 1.21s.84-.42 1.46-.38 1.25.75 1.84.88 1.28-.54 1.7-.8zm.54 3.88c-2 .83-1.92 3-.09 3.54s3-.37 2.75-2a1.82 1.82 0 0 0 -2.71-1.54zm1.66 2c-.2.75-1.29.42-1.62.25s-.33-1 .5-1.33a.88.88 0 0 1 1.07 1.08zm.13-6.88a1.2 1.2 0 0 0 -.63.88c0 .33 3.5 3 4 3.21s.34-.17.5-.5-3.39-3.76-3.92-3.59zm2.62-1.91c-.25-.21-.62.2-.7.46a23.92 23.92 0 0 0 2.75 3c.37.25.41-.12.58-.41s-2.43-2.88-2.68-3.05zm1.71-2.17c-.29 0-.37.63-.37.63.16.08 1.79 1.79 2.08 1.79s.17-.21.21-.67-1.68-1.71-1.92-1.75zm1.09-3c-.13 0-.43.75-.25.75s1.16 1.46 1.45 1.54.09-.08.09-.62-1.22-1.71-1.38-1.71zm-2.42-6.33a2 2 0 0 0 2-2.84c-.54-1.33-1.68-1.29-2.75-.87a1.77 1.77 0 0 0 -1.34 1.71c-.21.87.5 1.83 2.04 1.96zm-.4-2.84c.53-.21 1.1-.23 1.36.43a1 1 0 0 1 -1 1.41c-.76-.06-1.12-.54-1-1a.86.86 0 0 1 .59-.88zm-29.94-10.66c.29 0 .21-.17.75-.42s.5.17 1.75.63a3.11 3.11 0 0 0 2.5-.3 1.41 1.41 0 0 0 .75-.5c.25-.25 0-.25-.29-.41s-.59.29-2.17.33-1.42-.42-2.21-.58-1.28.49-1.54.58.13.63.46.67zm1 5.79c-.79.83-1.46 3.17 1.41 4.42a7.52 7.52 0 0 0 7.46-1.04 2.4 2.4 0 0 0 -.37-3.58c-.79-.5-.88-1-1.54-1.54s-1.85-.87-3.8-.34a7.74 7.74 0 0 0 -3.16 2.08zm5.41-.08c1 0 .71-.59 1.5.37s1.17 1.38.88 1.92a4.85 4.85 0 0 1 -5 1c-2.17-1-2-1.71-1.58-2.38a5.46 5.46 0 0 1 2.08-1.83c.5-.21 1.17.87 2.12.92zm-8.2 6.46c-.46-.58-2.78-.05-3.55.38a2.2 2.2 0 0 0 -1.37 2.12c.08.54.42.67 1.67 1s1.87-.62 2.54-1.16 1.17-1.8.71-2.34zm-1.13 1.59c-.58.45-1.25 1.33-1.92 1.2s-1.66-.95.17-1.79a3.34 3.34 0 0 1 1.92-.33c.42.12.42.41-.17.87zm8.13 4.12c-3.54 1.74-3.54 3.29-2.54 4.29s4.12 0 4.83-2a1.76 1.76 0 0 0 -2.29-2.34zm1.37 2c-.33 1-2.17 2-2.83 1.79s-1.34-1.58 1.37-2.91c.48-.29 1.79.03 1.46 1.07zm9.13.42c-2.17.91-1.17 2.41-.09 2.83s2.67-.21 2.71-1.5-2.02-1.64-2.66-1.38zm1.5 1.39a.84.84 0 0 1 -1.15.64c-.46-.18-.89-.82 0-1.2.29-.16 1.16-.04 1.15.51zm-13.8 12.48c-.29 0-.29.29-.45.62a1.87 1.87 0 0 1 -1.46 1.17c-.92.08-1.74-1.17-2-1-.63.58-.5 1 .37 1.5a2.88 2.88 0 0 0 2.84 0c.71-.46.91-1.62 1-2s-.04-.29-.3-.29zm13.92-5.13c-.29-.25-.12-.79-.12-1.12s-1.13-.67-1.92-.71a4.13 4.13 0 0 1 -1.42-.42 4.72 4.72 0 0 0 -1.25.42c-.21.08-.5-1.88-.62-2.29s-1.38-.25-1.92 0-.08 1.33-.08 1.54-.21.29-.46.46-.71-.34-1-.5-1.25.37-1.54.66.25 1.5.37 1.71-2.5-.08-2.75 0-.46.38-.58.67.29.41.87.83a4.71 4.71 0 0 1 1.09 2c0 .17-.38 0-1.17 0s-1.08-.06-1.08.21a1.61 1.61 0 0 0 1 1 13.31 13.31 0 0 1 1.83.2c.42.13.5 2 .5 2a3 3 0 0 0 .63.88c.46.46 2.91-1.33 3.33-1.5s.83.17 2 .46.54 0 1.75-.42.79 0 1.21.38.33.29 1.16.2a6.35 6.35 0 0 1 1.59.13c.66 0 1.12-.46 1.66-1.79a3.51 3.51 0 0 0 -.54-3.5c-.71-1.17-2.2-1.21-2.54-1.46zm1.17 4.5a2.19 2.19 0 0 1 -.63.71s-1.83-1.08-2.33-.88a15.56 15.56 0 0 1 -1.54.59l-1.75-.13a3.23 3.23 0 0 0 -1.46.25c-.38.17-1.29 1-1.67.71a1.7 1.7 0 0 1 -.75-1.29c0-.5-.87-2.29-.87-2.63s1-.41 1.08-.66.29-1 .46-1a9.48 9.48 0 0 0 1.5-.75c.29-.25.42-.62.71-.5s.5 1.13 1.12.84a2.43 2.43 0 0 1 1.3-.43c.79-.08 2.13.25 2 .42s-.45 1.37-.16 1.58 2.87 1 3.12 1.38a2.8 2.8 0 0 1 -.13 1.83zm-9.38-2.5c.09.29 1.29 2.42 1.29 2.42a2.31 2.31 0 0 0 1-.29c.38-.25-1.41-2.09-1.54-2.34s-.75.25-.75.25zm2.46-.83c-.25 0-.46.37-.46.37a28.49 28.49 0 0 0 2 2.21 1.88 1.88 0 0 0 1.08-.21c.26-.12-2.37-2.33-2.62-2.33zm4.71 10.08a12 12 0 0 1 -2.38 0c-.45-.08-.33-.21-.79-.42s-.75.29-1.16.5-.67-.16-1.13-.41a2.41 2.41 0 0 0 -1.83.41.75.75 0 0 0 .33.88c.46.25.71-.09 1.17-.25s.12.16.91.41 1.3-.66 1.67-.54a8.57 8.57 0 0 0 2.08.42 3.4 3.4 0 0 0 1.3-.21c.12-.08.12-.83-.17-.75zm6.92-4.29c-.38-.25-1.19.07-1 .42a14.5 14.5 0 0 0 2.25 2.45c.46.21.46-.16.66-.37s-1.54-2.21-1.91-2.46zm-12.92-21.83c.29 0 .21-.16.29-.37s-.58-.54-1.42-.75-.87.37-1.95.5-1.78-.65-2.17-.42-.83.58-.58 1 .41.12.91 0 .79.29 1.75.33.92-.17 1.42-.37 1.46.08 1.75.08zm15.83-8c.67.33 1.67-.25 1.54-.87a1 1 0 0 0 -1.45-.67c-.46.16-.75 1.12-.09 1.45zm-28.75-.67c.67.33 1.67-.25 1.54-.88a1 1 0 0 0 -1.45-.66c-.46.21-.79 1.21-.09 1.54zm.84 19.12c-.46.25-.75 1.21-.09 1.54s1.67-.25 1.54-.87a1 1 0 0 0 -1.45-.67zm-.92 7.13c-.46.25-.75 1.21-.08 1.54s1.66-.25 1.54-.88a1 1 0 0 0 -1.46-.66zm-5-13c.25-.13 0-.42-.17-.83s-.46-.13-1-.05-2.22-.46-2.29 0c0 .25 0 1.21.54 1.13a6.27 6.27 0 0 1 1.29 0 6.25 6.25 0 0 0 1.63-.21zm-1.5 4.67a1.75 1.75 0 0 0 -.29 1.08c0 .21 1.83.12 2.46.08s.37-.46.16-.91-2.09-.45-2.33-.21z" fill="#fff"/>
</g>
</svg>